<?xml version="1.0"?>
<svg xmlns="http://www.w3.org/2000/svg" viewBox="0 0 512 512" width="512px" height="512px" class=""><g><path d="m512 256-105.421875-60.863281-56.875-32.839844-32.839844-56.875-60.863281-105.421875-60.863281 105.421875-32.839844 56.875-56.875 32.839844-105.421875 60.863281 105.421875 60.863281 56.875 32.839844 32.839844 56.875 60.863281 105.421875 60.863281-105.421875 32.839844-56.875 56.875-32.839844zm0 0" fill="#d9d9d9" data-original="#D9D9D9" class="" style="fill:#348DBF" data-old_color="#348dbf"/><path d="m512 256-105.421875-60.863281-56.875-32.839844-32.839844-56.875-60.863281-105.421875v512l60.863281-105.421875 32.839844-56.875 56.875-32.839844zm0 0" fill="#cfcfcf" data-original="#CFCFCF" class="" style="fill:#348DBF" data-old_color="#348dbf"/><path d="m311.421875 256c0 30.609375-24.8125 55.421875-55.421875 55.421875s-55.421875-24.8125-55.421875-55.421875 24.8125-55.421875 55.421875-55.421875 55.421875 24.8125 55.421875 55.421875zm0 0" fill="#6e6e6e" data-original="#6E6E6E" class="" style="fill:#348DBF" data-old_color="#348dbf"/><path d="m311.421875 256c0 30.609375-24.8125 55.421875-55.421875 55.421875 0-55.347656 0-66.835937 0-110.84375 30.609375 0 55.421875 24.8125 55.421875 55.421875zm0 0" fill="#595959" data-original="#595959" class="active-path" style="fill:#348DBF" data-old_color="#348dbf"/></g> </svg>
